<svg xmlns="http://www.w3.org/2000/svg" width="198" height="150" viewBox="0 0 198 150">
    <g fill="none" fill-rule="evenodd">
        <g fill-rule="nonzero">
            <g>
                <g transform="translate(-561 -233) translate(540 233) translate(21)">
                    <path fill="#F2F2F2" d="M99.623 0H11.296C5.06.007.007 5.049 0 11.27v103.482c.007 6.221 5.06 11.263 11.296 11.27h88.327c6.235-.007 11.288-5.049 11.295-11.27V11.27C110.911 5.05 105.858.007 99.623 0z"/>
                    <path fill="#FFF" d="M99.623 3.244H11.296c-4.44.005-8.04 3.596-8.044 8.026v103.482c.005 4.43 3.603 8.02 8.044 8.025h88.327c4.44-.005 8.039-3.595 8.044-8.025V11.27c-.005-4.43-3.604-8.02-8.044-8.026z"/>
                    <path fill="#F2F2F2" d="M86.33 33.334H41.663c-1.039 0-1.88-.84-1.88-1.877 0-1.036.841-1.877 1.88-1.877H86.33c.672 0 1.293.358 1.629.939.336.58.336 1.296 0 1.877-.336.58-.957.938-1.63.938zM94.089 39.668H41.663c-1.038 0-1.879-.84-1.879-1.877 0-1.035.841-1.875 1.88-1.876h52.425c1.038 0 1.879.84 1.879 1.876s-.841 1.876-1.88 1.877zM86.33 61.72H41.663c-1.039 0-1.88-.84-1.88-1.876 0-1.037.841-1.877 1.88-1.877H86.33c.672 0 1.293.358 1.629.938.336.581.336 1.297 0 1.877-.336.58-.957.939-1.63.939zM94.089 68.055H41.663c-1.038-.001-1.879-.841-1.879-1.877s.841-1.876 1.88-1.877h52.425c1.038.001 1.879.841 1.879 1.877s-.841 1.876-1.88 1.877zM86.33 90.107H41.663c-1.039 0-1.88-.84-1.88-1.877 0-1.036.841-1.876 1.88-1.876H86.33c.672-.001 1.294.356 1.63.937.337.581.337 1.297 0 1.878-.336.581-.958.939-1.63.938zM94.089 96.441H41.663c-1.038 0-1.879-.84-1.879-1.876s.841-1.876 1.88-1.877h52.425c1.038 0 1.879.84 1.879 1.877 0 1.035-.841 1.875-1.88 1.876z"/>
                    <path fill="#E6E6E6" d="M31.658 42.544H15.85c-.498 0-.902-.403-.902-.9v-14.04c0-.496.404-.898.902-.899h15.807c.497 0 .901.403.902.9v14.039c-.001.497-.405.9-.902.9zM31.658 70.93H15.85c-.498 0-.902-.403-.902-.9V55.992c0-.497.404-.9.902-.9h15.807c.497 0 .901.403.902.9V70.03c-.001.497-.405.9-.902.9zM31.658 99.317H15.85c-.498 0-.902-.403-.902-.9V84.378c0-.497.404-.9.902-.9h15.807c.497 0 .901.403.902.9v14.039c-.001.497-.405.9-.902.9zM177.433 97.869l.701-6.114 3.513-30.657.701-6.114c.702-6.182-3.745-11.764-9.939-12.478L92.685 33.41c-6.196-.7-11.79 3.737-12.505 9.917l-.002.016-4.911 42.854-.002.015c-.702 6.182 3.745 11.764 9.939 12.478l79.724 9.096c6.195.7 11.79-3.737 12.505-9.917z"/>
                    <path fill="#FFF" d="M174.203 97.5l.83-7.241 3.255-28.402.83-7.242c.499-4.402-2.667-8.377-7.078-8.886l-79.724-9.095c-4.412-.499-8.396 2.66-8.906 7.062l-.001.015-4.912 42.854-.002.016c-.499 4.402 2.667 8.377 7.078 8.886l79.724 9.095c4.412.499 8.396-2.66 8.906-7.062z"/>
                    <path fill="#E6E6E6" d="M161.153 58.644l-44.377-5.063c-.668-.075-1.245-.501-1.513-1.117-.269-.615-.187-1.326.213-1.865.4-.54 1.06-.824 1.727-.747l44.378 5.063c1.03.119 1.77 1.048 1.653 2.077-.118 1.03-1.05 1.769-2.08 1.652zM168.14 65.817l-52.085-5.943c-.669-.075-1.245-.501-1.514-1.116-.268-.616-.186-1.327.214-1.866.4-.54 1.059-.824 1.727-.747l52.086 5.943c.668.076 1.244.502 1.512 1.117s.186 1.325-.214 1.864c-.4.539-1.057.824-1.725.748zM166.689 78.368l-76.792-8.76c-1.031-.12-1.77-1.05-1.653-2.078.118-1.03 1.05-1.769 2.08-1.652l76.792 8.761c.668.076 1.245.501 1.513 1.117.268.615.187 1.326-.214 1.865-.4.54-1.058.824-1.726.747zM166.214 84.69L89.176 75.9c-1.031-.118-1.771-1.048-1.653-2.077.118-1.03 1.049-1.769 2.08-1.652l77.039 8.79c1.03.118 1.77 1.048 1.653 2.077-.118 1.03-1.05 1.768-2.08 1.652zM165.275 90.7l-76.791-8.761c-.668-.076-1.245-.502-1.513-1.117-.268-.615-.187-1.327.214-1.866.4-.539 1.058-.823 1.726-.747l76.792 8.762c1.031.118 1.771 1.048 1.653 2.077-.118 1.03-1.05 1.769-2.08 1.652zM164.8 97.021l-77.037-8.79c-1.031-.118-1.771-1.048-1.653-2.077.118-1.029 1.049-1.768 2.08-1.651l77.038 8.789c.669.076 1.245.501 1.514 1.117.268.615.186 1.326-.214 1.865-.4.54-1.059.824-1.727.747z"/>
                    <path fill="#E21B22" d="M105.786 61.597l-15.704-1.792c-.495-.057-.85-.503-.794-.996l1.599-13.948c.057-.494.503-.848.998-.792l15.705 1.792c.494.057.85.502.793.996l-1.598 13.948c-.057.494-.504.848-.999.792z"/>
                    <path fill="#3F3D56" d="M197.765 149.963h-51.402c-.13 0-.235-.105-.235-.234 0-.13.105-.234.235-.234h51.402c.13 0 .235.105.235.234 0 .13-.105.234-.235.234z"/>
                    <path fill="#FFB8B8" d="M178.464 60.495c-.16.63-.032 1.298.35 1.825.38.527.976.858 1.626.905l1.59 4.76 3.136-.258-2.34-6.692c.005-1.118-.828-2.065-1.941-2.203-1.113-.137-2.153.577-2.421 1.663z"/>
                    <path fill="#E21B22" d="M180.865 91.671c.748.686 1.806.92 2.774.614.969-.306 1.699-1.105 1.916-2.095l2.483-11.351c.424-1.941.324-3.96-.29-5.85l-2.906-8.94c-.085-.26-.278-.47-.53-.576-.253-.105-.539-.095-.784.027l-1.896.947c-.406.203-.608.665-.482 1.1l.192.656c1.59 5.456 1.673 11.24.241 16.74l-1.545 5.932c-.263 1.013.055 2.088.827 2.796z"/>
                    <path fill="#FFB8B8" d="M170.929 147.514L168.246 147.514 166.97 137.187 170.93 137.188z"/>
                    <path fill="#2F2E41" d="M166.329 146.749h5.175V150h-8.433c0-.862.343-1.69.954-2.299.61-.61 1.44-.952 2.304-.952z"/>
                    <path fill="#FFB8B8" d="M185.392 147.514L182.709 147.514 181.433 137.187 185.393 137.188z"/>
                    <path fill="#2F2E41" d="M180.792 146.749h5.175V150h-8.433c0-.862.343-1.69.954-2.299.611-.61 1.44-.952 2.304-.952z"/>
                    <ellipse cx="177.534" cy="68.351" fill="#FFB8B8" rx="5.765" ry="5.752"/>
                    <path fill="#FFB8B8" d="M157.822 105.862c.081-.644.445-1.22.993-1.572.548-.351 1.223-.443 1.845-.25l3.222-3.853 2.824 1.382-4.626 5.378c-.404 1.044-1.526 1.622-2.612 1.345-1.086-.277-1.794-1.32-1.646-2.43z"/>
                    <path fill="#2F2E41" d="M178.937 74.102c2.368.051 4.555-1.259 5.623-3.368 1.068-2.109.827-4.642-.619-6.514-1.446-1.871-3.84-2.748-6.156-2.254-1.268-.768-2.742-1.285-4.219-1.154-1.477.132-2.938 1.007-3.49 2.38-.553 1.373.04 3.184 1.414 3.742.88.358 1.875.184 2.815.04.94-.145 1.965-.239 2.783.245.818.484 1.185 1.781.453 2.386-.795.683-1.084 1.785-.724 2.768.368.95 1.373 1.713 2.12 1.73zM186.09 105.635l1.022 38.72c.007.261-.095.513-.282.695-.188.183-.443.279-.704.265l-3.369-.171c-.443-.023-.81-.351-.879-.789l-4.007-25.149c-.035-.222-.224-.387-.449-.394-.225-.007-.423.146-.473.366l-5.423 24.214c-.059.262-.227.486-.463.616-.235.13-.515.152-.768.062l-3.343-.204c-.398-.14-.652-.529-.622-.949l2.918-37.649 16.842.367z"/>
                    <path fill="#E21B22" d="M187.73 87.244c.565-5.868-3.759-11.175-9.652-11.592-2.54-.18-6.481-.245-7.78 3.076-3.915 10.003 2.938 9.76.577 18.427-2.361 8.666-4.446 9.163-1.207 9.789 3.24.625 17.807 4.32 17.209-1.78-.368-3.75.291-12.067.854-17.92z"/>
                    <path fill="#E21B22" d="M171.46 77.71c.947-.365 2.018-.198 2.808.44.79.636 1.177 1.646 1.017 2.647l-1.84 11.473c-.315 1.962-1.146 3.805-2.41 5.34l-5.975 7.266c-.174.211-.431.336-.705.343-.273.006-.536-.107-.719-.31l-1.42-1.573c-.303-.336-.322-.84-.045-1.199l.418-.54c3.476-4.502 5.67-9.857 6.348-15.5l.731-6.084c.125-1.04.814-1.925 1.792-2.302z"/>
                </g>
            </g>
        </g>
    </g>
</svg>
